# xmcd
#
# Track frame offsets:
#	150
#	14260
#	32780
#	49002
#	67842
#	80795
#	103957
#	115632
#	131780
#	143985
#	157460
#	174007
#
# Disc length: 2482 seconds
#
# Revision: 0
# Processed by: cddbd v1.5.1PL2 Copyright (c) Steve Scherf et al.
# Submitted via: audiograbber 1.83.01
#
DISCID=a409b00c
DTITLE=Electric Range - Electric Range
DYEAR=1990
DGENRE=Country
TTITLE0=All That Remains Of Love
TTITLE1=Town and Country
TTITLE2=The Love Of His Life
TTITLE3=We Came For Love
TTITLE4=Winding River
TTITLE5=Walking In My Sleep
TTITLE6=Black Satin
TTITLE7=Sailing Home
TTITLE8=Gone Under No Uncertain Terms
TTITLE9=Ride Down The Wind
TTITLE10=Riding Down The Canyon
TTITLE11=Far Away
EXTD=
EXTT0=
EXTT1=
EXTT2=
EXTT3=
EXTT4=
EXTT5=
EXTT6=
EXTT7=
EXTT8=
EXTT9=
EXTT10=
EXTT11=
PLAYORDER=
